# xmcd
#
# Track frame offsets:
#	150
#	13282
#	21156
#	46957
#	55806
#	67998
#	77164
#	86275
#	98510
#	108934
#	121085
#	150470
#	162175
#	175204
#	195284
#	232258
#	242479
#
# Disc length: 3444 seconds
#
# Revision: 1
# Processed by: cddbd v1.5.2PL0 Copyright (c) Steve Scherf et al.
# Submitted via: audiograbber 1.83.01
#
DISCID=c40d7211
DTITLE=Tony Worsley and The Blu J's - Been There, Done This!
DYEAR=1900
DGENRE=
TTITLE0=Just A Little Bit
TTITLE1=Rockabilly
TTITLE2=Medley-I'm So Glad - If I - So Much In Love
TTITLE3=Talkin' 'Bout You
TTITLE4=Raining In My Heart
TTITLE5=Knocking On Wood
TTITLE6=Missing You
TTITLE7=If You See My Baby
TTITLE8=Velvet Waters
TTITLE9=Jay Walker
TTITLE10=Blu-J Medley - Motivate - We're Friends - Tell Me When
TTITLE11='Bout Love
TTITLE12=Something's Got A Hold Of Me
TTITLE13=Medley - Me You Gotta Teach - In My Dreams
TTITLE14=Aussie Medley - Midnight Hour - Shakin' All Over - She's So Fine
TTITLE15=Ill Be There
TTITLE16=Rock 'N Roll Together
EXTD=
EXTT0=
EXTT1=
EXTT2=
EXTT3=
EXTT4=
EXTT5=
EXTT6=
EXTT7=
EXTT8=
EXTT9=
EXTT10=
EXTT11=
EXTT12=
EXTT13=
EXTT14=
EXTT15=
EXTT16=
PLAYORDER=
